# Blender v2.79 (sub 0) OBJ File: ''
# www.blender.org
mtllib untitled.mtl
o Cube_001_Cube.002
v 1.000000 -0.900000 -0.900000
v 0.900000 -1.000000 -0.900000
v 0.900000 -0.900000 -1.000000
v 1.000000 -0.900000 0.900000
v 0.900000 -0.900000 1.000000
v 0.900000 -1.000000 0.900000
v -0.900000 -0.900000 1.000000
v -1.000000 -0.900000 0.900000
v -0.900000 -1.000000 0.900000
v -0.900000 -0.900000 -1.000000
v -0.900000 -1.000000 -0.900000
v -1.000000 -0.900000 -0.900000
v 0.900001 0.900000 -1.000000
v 0.900000 1.000000 -0.900000
v 1.000000 0.900000 -0.900000
v 0.899999 0.900000 1.000001
v 1.000000 0.900000 0.900000
v 0.899999 1.000000 0.900000
v -1.000000 0.900000 0.899999
v -0.900000 0.900000 1.000000
v -0.900000 1.000000 0.900000
v -1.000000 0.900000 -0.900000
v -0.900000 1.000000 -0.900000
v -0.900000 0.900000 -1.000000
vt 0.915003 0.932457
vt 0.082882 0.063783
vt 0.905728 0.063983
vt 0.092137 0.932258
vt 0.905722 0.063983
vt 0.915003 0.932457
vt 0.092141 0.932258
vt 0.905723 0.063983
vt 0.915003 0.932457
vt 0.092135 0.932258
vt 0.905722 0.063983
vt 0.915003 0.932457
vt 0.915003 0.932457
vt 0.082876 0.063783
vt 0.905723 0.063983
vt 0.984033 0.943144
vt 0.929264 0.993526
vt 0.082875 0.063783
vt 0.013822 0.063767
vt 0.068595 0.005957
vt 0.013822 0.063767
vt 0.068594 0.005957
vt 0.082856 0.063783
vt 0.092135 0.932258
vt 0.080709 0.993320
vt 0.025911 0.942912
vt 0.929264 0.993526
vt 0.984033 0.943144
vt 0.917145 0.006163
vt 0.971949 0.063999
vt 0.013823 0.063767
vt 0.068595 0.005957
vt 0.082857 0.063783
vt 0.025911 0.942912
vt 0.080709 0.993320
vt 0.917145 0.006163
vt 0.905722 0.063983
vt 0.025913 0.942912
vt 0.092140 0.932258
vt 0.917145 0.006163
vt 0.013824 0.063767
vt 0.025917 0.942912
vt 0.915003 0.932457
vt 0.082877 0.063783
vt 0.092140 0.932258
vt 0.971949 0.063999
vt 0.025916 0.942912
vt 0.013829 0.063767
vn 0.0000 0.0000 -1.0000
vn -0.0000 -1.0000 0.0000
vn -1.0000 -0.0000 -0.0000
vn 0.0000 1.0000 -0.0000
vn -0.0000 -0.0000 1.0000
vn 0.5774 -0.5774 -0.5773
vn 0.5773 -0.5773 0.5774
vn -0.5773 -0.5774 0.5774
vn -0.5773 -0.5774 -0.5774
vn 0.5774 0.5774 -0.5773
vn 0.5774 0.5774 0.5773
vn -0.5774 0.5773 0.5773
vn -0.5773 0.5773 -0.5774
vn 0.7071 -0.7071 0.0000
vn 0.0000 -0.7071 -0.7071
vn 0.7071 -0.0000 -0.7071
vn -0.0000 -0.7071 0.7071
vn 0.7071 0.0000 0.7071
vn -0.7071 -0.7071 0.0000
vn -0.7071 0.0000 0.7071
vn -0.7071 -0.0000 -0.7071
vn 0.7071 0.7071 0.0000
vn 0.0000 0.7071 -0.7071
vn -0.0000 0.7071 0.7071
vn -0.7071 0.7071 -0.0000
vn 1.0000 0.0000 0.0000
usemtl Material_001
s off
f 3/1/1 24/2/1 13/3/1
f 6/4/2 11/5/2 2/6/2
f 8/7/3 22/8/3 12/9/3
f 23/10/4 18/11/4 14/12/4
f 16/13/5 7/14/5 5/15/5
f 1/16/6 2/17/6 3/1/6
f 4/18/7 5/19/7 6/20/7
f 7/21/8 8/22/8 9/23/8
f 10/24/9 11/25/9 12/26/9
f 13/27/10 14/12/10 15/28/10
f 16/29/11 17/30/11 18/11/11
f 19/31/12 20/32/12 21/33/12
f 22/34/13 23/10/13 24/35/13
f 4/18/14 2/36/14 1/37/14
f 11/25/15 3/1/15 2/17/15
f 13/3/16 1/16/16 3/1/16
f 5/38/17 9/23/17 6/4/17
f 17/39/18 5/19/18 4/18/18
f 12/40/19 9/23/19 8/22/19
f 20/41/20 8/7/20 7/42/20
f 12/26/21 24/2/21 10/24/21
f 14/12/22 17/30/22 15/28/22
f 24/35/23 14/12/23 13/27/23
f 18/11/24 20/32/24 16/29/24
f 23/10/25 19/31/25 21/33/25
f 15/43/26 4/18/26 1/37/26
f 3/1/1 10/24/1 24/2/1
f 6/4/2 9/23/2 11/5/2
f 8/7/3 19/44/3 22/8/3
f 23/10/4 21/33/4 18/11/4
f 16/13/5 20/45/5 7/14/5
f 4/18/14 6/20/14 2/36/14
f 11/25/15 10/24/15 3/1/15
f 13/3/16 15/46/16 1/16/16
f 5/38/17 7/21/17 9/23/17
f 17/39/18 16/47/18 5/19/18
f 12/40/19 11/5/19 9/23/19
f 20/41/20 19/44/20 8/7/20
f 12/26/21 22/48/21 24/2/21
f 14/12/22 18/11/22 17/30/22
f 24/35/23 23/10/23 14/12/23
f 18/11/24 21/33/24 20/32/24
f 23/10/25 22/34/25 19/31/25
f 15/43/26 17/39/26 4/18/26
o Cube.001
v 1.000000 -1.000000 -1.000000
v 1.000000 -1.000000 1.000000
v -1.000000 -1.000000 1.000000
v -1.000000 -1.000000 -1.000000
v 1.000000 1.000000 -1.000000
v 0.999999 1.000000 1.000001
v -1.000000 1.000000 1.000000
v -1.000000 1.000000 -1.000000
vn 0.0000 -1.0000 0.0000
vn 0.0000 1.0000 0.0000
vn 1.0000 0.0000 0.0000
vn -0.0000 -0.0000 1.0000
vn -1.0000 -0.0000 -0.0000
vn 0.0000 0.0000 -1.0000
usemtl Material.001
s off
f 25//27 27//27 28//27
f 32//28 30//28 29//28
f 29//29 26//29 25//29
f 30//30 27//30 26//30
f 27//31 32//31 28//31
f 25//32 32//32 29//32
f 25//27 26//27 27//27
f 32//28 31//28 30//28
f 29//29 30//29 26//29
f 30//30 31//30 27//30
f 27//31 31//31 32//31
f 25//32 28//32 32//32
o Cube
v 1.000000 -1.000000 -1.000000
v 1.000000 -1.000000 1.000000
v -1.000000 -1.000000 1.000000
v -1.000000 -1.000000 -1.000000
v 1.000000 1.000000 -0.999999
v 0.999999 1.000000 1.000001
v -1.000000 1.000000 1.000000
v -1.000000 1.000000 -1.000000
vn 0.0000 -1.0000 0.0000
vn 0.0000 1.0000 0.0000
vn 1.0000 0.0000 0.0000
vn -0.0000 -0.0000 1.0000
vn -1.0000 -0.0000 -0.0000
vn 0.0000 0.0000 -1.0000
usemtl Material
s off
f 33//33 34//33 35//33 36//33
f 37//34 40//34 39//34 38//34
f 33//35 37//35 38//35 34//35
f 34//36 38//36 39//36 35//36
f 35//37 39//37 40//37 36//37
f 37//38 33//38 36//38 40//38
